<svg xmlns="http://www.w3.org/2000/svg" viewBox="0 0 960 960" id="buoy"><path fill="#e9b44d" d="M699.7 429.9c13-6.3 25.3-14.4 36.1-24-2.1-1.8-4-3.9-5.5-6.3-9.3-13.9-.7-35.3 11.7-50.2 10.1-12.1 23.3-26.9 39.1-26.2h.2c6.6-51.9-18.5-107.8-64-134.5-54.2-31.9-130.7-18.3-170.6 30.2s-36.4 120.8 3.1 173.2c21.7 28.8 25.7 69.1 5 99-55.3-8.2-96-7-162.4-10.2-62.8-3-125.1 8.1-185.3 26.6-29 9-57.6 20.9-81.4 39.8s-42.5 45.5-47.4 75.5c-8.4 51.3 25.7 102.3 70.6 128.5s98.5 32.4 150.4 35.2c74.5 4 149.3 2.1 223.5-5.6 39.6-4.1 80.3-8.8 115.6-27.3 89.6-47 116.9-132.1 107.7-195.2-5.4-37.3-24.8-97.6-46.4-128.5zm-143 195.8c-8.2 3.9-17.7 4.5-26.9 5-79.4 4.3-159.1 3.7-238.4-1.9-8.1-.6-16.4-1.2-23.7-4.5-7.3-3.2-13.5-9.6-13.7-17-.3-12.7 15.5-20.1 29-23.6 82.8-21.8 172.1-12.9 255.6 1.6 13.6 2.4 30 7.7 31.8 20.3 1.1 8.3-5.5 16.3-13.7 20.1z"></path><path fill="#222" d="M674.4 339c36.1 15.2 61.3-40.2 24.4-55.7-36.8-15.5-61.4 40.1-24.4 55.7zm124.3 91.7c-9.2 0-19.3-1-30.8-3.5l-1.2-.3c-9.5-2-31.8-6.8-42.8-23.2-5.5-8.3-6.6-19-3.3-30.9 2.7-9.5 8.2-19.5 15.5-28.3 12-14.4 26.4-29.7 45.2-28.9 13.3.6 23.9 8.3 33.2 15 8.6 6.3 16.8 12.2 25.9 12 1.5 0 2.9-.1 4.4-.1 4.4-.1 8.6-.1 12.9-.6 14.9-1.5 22.9 4.4 26.9 9.6 6.7 8.6 6.7 20.7 3.9 28.2-6.7 18.2-23.8 34.3-44.5 42-12.6 4.9-26.9 9-45.3 9zM780 330.6c-11.7 0-22.8 12.1-32.3 23.5-14.8 17.7-16.2 33.8-11.2 41.3 7.6 11.4 25 15.1 33.4 16.9l1.2.3c30.6 6.6 50.7 1.6 67.9-4.8 16.5-6.1 30.5-19.1 35.6-33.1 1.2-3.2 1.4-9.7-1.7-13.8-2.5-3.2-7.1-4.5-13.6-3.9-5 .5-9.5.6-14.2.6-1.4 0-2.8 0-4.2.1-14.2.3-25.3-7.7-35-14.8-8.3-6.1-16.2-11.8-25.1-12.2-.3-.1-.5-.1-.8-.1zm-38 18.7zM425.8 641c-45.1 0-90.2-1.6-134.9-4.7-7.8-.5-17.5-1.2-26.2-5.1-10.8-4.8-17.9-14.1-18.1-23.7-.3-14.1 12-25.1 34.6-31 88.4-23.2 184.7-11.4 258.7 1.4 23.2 4 35.9 13 37.9 26.6 1.3 9.1-3.7 21.4-17.8 28-9.8 4.6-20.8 5.2-29.7 5.7-34.8 1.9-69.6 2.8-104.5 2.8zm-140.9-50c-11.4 3-23.6 8.8-23.4 16.2.1 3.7 3.9 8 9.2 10.4 6.3 2.8 14.2 3.4 21.2 3.8 78.7 5.5 158.6 6.1 237.5 1.9 9.6-.5 17.5-1.2 24.1-4.3 5.9-2.8 10-8.1 9.4-12.3-.9-6.2-10.2-11.3-25.6-13.9-138.1-24.1-207.4-13.6-252.4-1.8z"></path></svg>