<svg width="1080" height="1080" viewBox="0 0 1080 1080" fill="none" xmlns="http://www.w3.org/2000/svg">
<g clip-path="url(#clip0_2_16)">
<path d="M925.665 266.976C952.156 255.304 979.766 280.967 970.06 308.24L886.356 543.428C878.403 565.775 850.174 572.684 832.8 556.535L688.053 421.997C670.679 405.848 675.508 377.19 697.215 367.627L925.665 266.976Z" fill="black"/>
<path d="M112.212 303.222C103.593 274.511 134.629 250.108 160.497 265.258L384.194 396.278C404.268 408.036 406.201 436.316 387.913 450.695L238.756 567.97C220.468 582.349 193.442 573.799 186.753 551.517L112.212 303.222Z" fill="black"/>
<path d="M173.19 368.001C166.922 347.119 189.494 329.372 208.306 340.391L339.917 417.475C354.517 426.026 355.922 446.594 342.622 457.051L254.867 526.049C241.566 536.507 221.911 530.288 217.046 514.083L173.19 368.001Z" fill="#B55E5E"/>
<path d="M861.281 341.664C880.579 331.52 902.314 350.284 895.094 370.855L844.587 514.774C838.984 530.738 819.064 536.049 806.257 524.993L721.758 452.044C708.951 440.987 711.298 420.506 726.274 412.633L861.281 341.664Z" fill="#B55E5E"/>
<path d="M894 677.067C894 870.091 731.927 960.567 532 960.567C332.073 960.567 170 870.091 170 677.067C170 484.044 332.073 327.567 532 327.567C731.927 327.567 894 484.044 894 677.067Z" fill="black"/>
<path d="M586.907 729.305C577.407 755.567 559.707 774.067 535.407 774.067C511.106 774.067 495.019 748.461 484.407 729.305C457.407 680.567 511.106 680.567 535.407 680.567C596.407 680.567 598.025 698.567 586.907 729.305Z" fill="#B55E5E"/>
<path d="M801 604.567C801 661.453 756.9 695.067 702.5 695.067C648.1 695.067 604 661.453 604 604.567C604 547.682 648.1 501.567 702.5 501.567C756.9 501.567 801 547.682 801 604.567Z" fill="#6B9F37"/>
<ellipse cx="698.5" cy="601.567" rx="51.5" ry="59" fill="#1E1E1E"/>
<path d="M470 599.567C470 656.453 425.9 691.067 371.5 691.067C317.1 691.067 273 656.453 273 599.567C273 542.682 317.1 496.567 371.5 496.567C425.9 496.567 470 542.682 470 599.567Z" fill="#6B9F37"/>
<ellipse cx="371" cy="602.067" rx="52" ry="65.5" fill="#1E1E1E"/>
<line x1="641.555" y1="723.618" x2="943.555" y2="654.618" stroke="black" stroke-width="4"/>
<line x1="414.218" y1="733.408" x2="89.2183" y2="595.408" stroke="black" stroke-width="4"/>
<line x1="409.223" y1="753.555" x2="115.223" y2="786.555" stroke="black" stroke-width="4"/>
<line x1="632.063" y1="779.873" x2="895.063" y2="944.873" stroke="black" stroke-width="4"/>
<line x1="643.218" y1="749.579" x2="944.218" y2="782.579" stroke="black" stroke-width="4"/>
<line x1="415.871" y1="786.368" x2="132.871" y2="923.368" stroke="black" stroke-width="4"/>
<circle cx="356.5" cy="576.067" r="10.5" fill="#D9D9D9"/>
<circle cx="383" cy="579.567" r="6" fill="#D9D9D9"/>
<circle cx="714" cy="580.567" r="6" fill="#D9D9D9"/>
<circle cx="680.5" cy="576.067" r="10.5" fill="#D9D9D9"/>
<path d="M535 768.791C498.391 803.744 461 771.247 461 760.567" stroke="#B55E5E" stroke-width="10"/>
<path d="M539 768.791C578.578 803.744 619 771.247 619 760.567" stroke="#B55E5E" stroke-width="10"/>
<path d="M470 588.567C470 564.167 459.622 540.767 441.15 523.514C422.678 506.26 397.624 496.567 371.5 496.567C345.376 496.567 320.322 506.26 301.85 523.514C283.378 540.767 273 564.167 273 588.567L371.5 588.567H470Z" fill="black"/>
<path d="M801 593.567C801 569.167 790.622 545.767 772.15 528.514C753.678 511.26 728.624 501.567 702.5 501.567C676.376 501.567 651.322 511.26 632.85 528.514C614.378 545.767 604 569.167 604 593.567L702.5 593.567H801Z" fill="black"/>
</g>
<defs>
<clipPath id="clip0_2_16">
<rect width="1080" height="1080" fill="white"/>
</clipPath>
</defs>
</svg>
