<svg width="84" height="100" viewBox="0 0 84 100" fill="none" xmlns="http://www.w3.org/2000/svg">
<path d="M0 85C0 93.2843 6.71573 100 15 100H69C77.2843 100 84 93.2843 84 85V42C84 18.804 65.196 0 42 0C18.804 0 0 18.804 0 42V85Z" fill="#454545"/>
<path fill-rule="evenodd" clip-rule="evenodd" d="M29.2809 26.0112C20.7634 26.0112 11.9368 32.2415 11.9368 41.2144V98C11.9368 99.1046 12.8322 100 13.9368 100H70.0632C71.1678 100 72.0632 99.1046 72.0632 98C72.0632 79.0681 72.0632 60.1308 72.0632 41.2042C72.0632 32.2341 63.2276 26.0112 54.719 26.0112C50.0556 26.0112 45.822 27.6246 42.705 30.2492C42.2993 30.5908 41.7006 30.5908 41.2949 30.2492C38.178 27.6246 33.9444 26.0112 29.2809 26.0112Z" fill="#E5E5E5"/>
<path d="M30.5086 64.7745C29.0637 62.8612 29.1804 60.1915 30.7868 58.4115L38.2759 50.113C40.2615 47.9128 43.7141 47.9128 45.6997 50.113L53.1888 58.4115C54.7952 60.1915 54.9119 62.8612 53.467 64.7745L45.9779 74.6918C43.9774 77.3409 39.9982 77.3409 37.9977 74.6918L30.5086 64.7745Z" fill="#E96F00"/>
<path d="M62 48C62 44.6863 59.3137 42 56 42C52.6863 42 50 44.6863 50 48C50 51.3137 52.6863 54 56 54C59.3137 54 62 51.3137 62 48Z" fill="black"/>
<path d="M34 48C34 44.6863 31.3137 42 28 42C24.6863 42 22 44.6863 22 48C22 51.3137 24.6863 54 28 54C31.3137 54 34 51.3137 34 48Z" fill="black"/>
</svg>
