<?xml version="1.0" encoding="UTF-8" standalone="no" ?>
<!DOCTYPE svg PUBLIC "-//W3C//DTD SVG 1.1//EN" "http://www.w3.org/Graphics/SVG/1.1/DTD/svg11.dtd">
<svg xmlns="http://www.w3.org/2000/svg" xmlns:xlink="http://www.w3.org/1999/xlink" version="1.1" width="1080" height="1080" viewBox="0 0 1080 1080" xml:space="preserve">
<desc>Created with Fabric.js 5.2.4</desc>
<defs>
</defs>
<g transform="matrix(1 0 0 1 540 540)" id="165cf7b0-9fc8-4f8e-8a77-041a090d5180"  >
</g>
<g transform="matrix(1 0 0 1 540 540)" id="026ce110-aa8b-4953-8b71-1d83b4c47720"  >
<rect style="stroke: none; stroke-width: 1; stroke-dasharray: none; stroke-linecap: butt; stroke-dashoffset: 0; stroke-linejoin: miter; stroke-miterlimit: 4; fill: rgb(255,255,255); fill-rule: nonzero; opacity: 1; visibility: hidden;" vector-effect="non-scaling-stroke"  x="-540" y="-540" rx="0" ry="0" width="1080" height="1080" />
</g>
<g transform="matrix(31.82 31.82 -31.82 31.82 377.17 540)"  >
<g style=""   >
		<g transform="matrix(1 0 0 1 1.82 -1.84)"  >
<path style="stroke: none; stroke-width: 1; stroke-dasharray: none; stroke-linecap: butt; stroke-dashoffset: 0; stroke-linejoin: miter; stroke-miterlimit: 4; fill: rgb(255,255,255); fill-rule: nonzero; opacity: 1;" vector-effect="non-scaling-stroke"  transform=" translate(-13.82, -10.16)" d="M 7.57979 15.0077 L 8.10932 14.4766 L 7.57979 15.0077 Z M 7.57979 9.53078 L 7.05025 8.99965 L 7.05025 8.99965 L 7.57979 9.53078 Z M 14.4465 16.3769 L 13.917 15.8458 L 14.4465 16.3769 Z M 8.95314 16.3769 L 8.42361 16.9081 L 8.95314 16.3769 Z M 11.6998 18.3133 L 11.6998 19.0633 L 11.6998 18.3133 Z M 20.2934 10.5476 L 20.8229 11.0788 L 20.2934 10.5476 Z M 13.4266 3.70146 L 13.9562 4.23259 L 13.4266 3.70146 Z M 12.2188 18.2188 L 12.478 18.9226 L 12.2188 18.2188 Z M 5.74954 11.7075 L 6.44539 11.9873 L 5.74954 11.7075 Z M 19.7639 10.0165 L 13.917 15.8458 L 14.9761 16.9081 L 20.8229 11.0788 L 19.7639 10.0165 Z M 9.48267 15.8458 L 8.10932 14.4766 L 7.05025 15.5388 L 8.42361 16.9081 L 9.48267 15.8458 Z M 8.10932 10.0619 L 13.9562 4.23259 L 12.8971 3.17034 L 7.05025 8.99965 L 8.10932 10.0619 Z M 17.5467 2.75 L 18.1156 2.75 L 18.1156 1.25 L 17.5467 1.25 L 17.5467 2.75 Z M 21.25 5.87277 L 21.25 6.43993 L 22.75 6.43993 L 22.75 5.87277 L 21.25 5.87277 Z M 18.1156 2.75 C 19.0523 2.75 19.6796 2.75158 20.1471 2.81425 C 20.5932 2.87405 20.7798 2.97688 20.9016 3.09828 L 21.9607 2.03603 C 21.5136 1.59027 20.958 1.40953 20.3463 1.32754 C 19.756 1.24842 19.01 1.25 18.1156 1.25 L 18.1156 2.75 Z M 22.75 5.87277 C 22.75 4.98122 22.7516 4.23688 22.6721 3.6478 C 22.5898 3.03692 22.4081 2.48209 21.9607 2.03603 L 20.9016 3.09828 C 21.023 3.21937 21.1258 3.40453 21.1856 3.84826 C 21.2484 4.3138 21.25 4.93869 21.25 5.87277 L 22.75 5.87277 Z M 8.10932 14.4766 C 7.44688 13.8161 7.00465 13.373 6.71873 12.9994 C 6.44599 12.643 6.38757 12.4397 6.38757 12.2692 L 4.88757 12.2692 C 4.88757 12.9009 5.15286 13.4214 5.52752 13.911 C 5.88901 14.3833 6.41788 14.9084 7.05025 15.5388 L 8.10932 14.4766 Z M 8.42361 16.9081 C 9.05601 17.5386 9.58258 18.0658 10.0563 18.4262 C 10.5474 18.7997 11.0684 19.0633 11.6998 19.0633 L 11.6998 17.5633 C 11.5268 17.5633 11.3219 17.5042 10.9644 17.2323 C 10.5896 16.9472 10.1451 16.5062 9.48267 15.8458 L 8.42361 16.9081 Z M 20.8229 11.0788 C 21.6215 10.2826 22.1784 9.74613 22.4708 9.04233 L 21.0856 8.46683 C 20.9345 8.83059 20.6494 9.13365 19.7639 10.0165 L 20.8229 11.0788 Z M 21.25 6.43993 C 21.25 7.68852 21.2366 8.10332 21.0856 8.46683 L 22.4708 9.04233 C 22.7633 8.33828 22.75 7.56584 22.75 6.43993 L 21.25 6.43993 Z M 13.9562 4.23259 C 14.8414 3.35 15.1457 3.06532 15.5114 2.91431 L 14.9388 1.52788 C 14.2337 1.81908 13.6959 2.3739 12.8971 3.17034 L 13.9562 4.23259 Z M 17.5467 1.25 C 16.4169 1.25 15.6437 1.23679 14.9388 1.52788 L 15.5114 2.91431 C 15.8772 2.76321 16.2948 2.75 17.5467 2.75 L 17.5467 1.25 Z M 13.917 15.8458 C 13.4057 16.3556 13.021 16.7386 12.6904 17.0241 C 12.3586 17.3106 12.1349 17.4504 11.9595 17.515 L 12.478 18.9226 C 12.9059 18.765 13.2918 18.4867 13.6708 18.1593 C 14.0512 17.8308 14.4787 17.404 14.9761 16.9081 L 13.917 15.8458 Z M 11.9595 17.515 C 11.8671 17.5491 11.7846 17.5633 11.6998 17.5633 L 11.6998 19.0633 C 11.9705 19.0633 12.2282 19.0146 12.478 18.9226 L 11.9595 17.515 Z M 7.05025 8.99965 C 6.56478 9.48367 6.14562 9.90103 5.8202 10.2724 C 5.49613 10.6423 5.21896 11.0167 5.0537 11.4277 L 6.44539 11.9873 C 6.51637 11.8108 6.66236 11.5874 6.94837 11.261 C 7.23303 10.9361 7.61088 10.5588 8.10932 10.0619 L 7.05025 8.99965 Z M 5.0537 11.4277 C 4.9458 11.696 4.88757 11.9743 4.88757 12.2692 L 6.38757 12.2692 C 6.38757 12.1791 6.40399 12.0902 6.44539 11.9873 L 5.0537 11.4277 Z" stroke-linecap="round" />
</g>
		<g transform="matrix(1 0 0 1 -1.52 1.51)"  >
<path style="stroke: none; stroke-width: 1; stroke-dasharray: none; stroke-linecap: butt; stroke-dashoffset: 0; stroke-linejoin: miter; stroke-miterlimit: 4; fill: rgb(255,255,255); fill-rule: nonzero; opacity: 0.5;" vector-effect="non-scaling-stroke"  transform=" translate(-10.48, -13.52)" d="M 5.57332 11.5312 L 6.10365 11.0008 L 6.10286 11 L 5.57332 11.5312 z M 9.91958 7.42188 C 10.2679 7.64606 10.732 7.54543 10.9562 7.19712 C 11.1803 6.84882 11.0797 6.38473 10.7314 6.16055 L 9.91958 7.42188 z M 9.69627 6.38625 L 10.1022 5.75558 L 10.1022 5.75558 L 9.69627 6.38625 z M 7.12664 5.06773 L 7.23629 4.32579 L 7.12664 5.06773 z M 2.22514 8.02316 L 2.75467 8.5543 L 2.75467 8.5543 L 2.22514 8.02316 z M 5.33941 5.29613 L 5.62684 5.98887 L 5.62684 5.98887 L 5.33941 5.29613 z M 2.86314 9.42596 L 2.58685 10.1232 L 2.58686 10.1232 L 2.86314 9.42596 z M 2.98636 9.47527 L 3.27206 8.78182 L 3.27206 8.78182 L 2.98636 9.47527 z M 4.61259 10.5733 L 5.14212 10.0422 L 4.61259 10.5733 z M 4.51839 10.48 L 3.99611 11.0183 L 4.51839 10.48 z M 2.48449 9.27592 L 2.76078 8.57867 L 2.76078 8.57867 L 2.48449 9.27592 z M 12.5 18.4999 L 11.9697 19.0303 C 11.9813 19.0418 11.9932 19.0531 12.0056 19.0639 L 12.5 18.4999 z M 17.8238 13.2318 C 17.5987 12.8841 17.1344 12.7847 16.7867 13.0099 C 16.439 13.235 16.3396 13.6994 16.5647 14.0471 L 17.8238 13.2318 z M 17.6005 14.2668 L 16.9709 14.6744 L 17.6005 14.2668 z M 18.923 16.8287 L 19.6648 16.7184 L 18.923 16.8287 z M 15.9586 21.7155 L 16.4882 22.2466 L 15.9586 21.7155 z M 18.6939 18.6105 L 19.386 18.8994 L 18.6939 18.6105 z M 14.749 21.5746 L 15.4457 21.2969 L 14.749 21.5746 z M 14.2748 20.4827 L 14.9324 20.122 L 14.2748 20.4827 z M 13.0229 18.9584 L 13.5524 18.4272 L 13.5354 18.4103 L 13.5173 18.3944 L 13.0229 18.9584 z M 13.8408 19.8248 L 14.4311 19.3622 L 13.8408 19.8248 z M 15.8746 21.7993 L 15.3451 21.2681 L 15.8746 21.7993 z M 10.7314 6.16055 L 10.1022 5.75558 L 9.29036 7.01691 L 9.91958 7.42188 L 10.7314 6.16055 z M 10.1022 5.75558 C 9.48075 5.35562 8.97919 5.03219 8.54751 4.79958 C 8.1064 4.56189 7.69319 4.39331 7.23629 4.32579 L 7.017 5.80967 C 7.2364 5.8421 7.47689 5.92658 7.83597 6.12007 C 8.20447 6.31864 8.64957 6.60449 9.29036 7.01691 L 10.1022 5.75558 z M 2.75467 8.5543 C 3.31773 7.99294 3.92167 7.39103 4.46441 6.89591 C 4.73558 6.64854 4.98252 6.43609 5.19434 6.27283 C 5.41778 6.10061 5.55951 6.0168 5.62684 5.98887 L 5.05198 4.6034 C 4.79474 4.71013 4.52494 4.89493 4.27863 5.08477 C 4.02071 5.28357 3.73971 5.52664 3.45348 5.78775 C 2.88143 6.3096 2.2528 6.93654 1.69562 7.49203 L 2.75467 8.5543 z M 7.23629 4.32579 C 6.50162 4.21721 5.7462 4.31535 5.05198 4.6034 L 5.62684 5.98887 C 6.07751 5.80188 6.55885 5.74197 7.017 5.80967 L 7.23629 4.32579 z M 2.20821 9.97318 L 2.58685 10.1232 L 3.13942 8.7287 L 2.76078 8.57867 L 2.20821 9.97318 z M 4.08306 11.1044 L 5.04379 12.0623 L 6.10286 11 L 5.14212 10.0422 L 4.08306 11.1044 z M 2.58686 10.1232 C 2.65049 10.1484 2.67596 10.1585 2.70065 10.1687 L 3.27206 8.78182 C 3.23583 8.76689 3.19947 8.7525 3.13942 8.7287 L 2.58686 10.1232 z M 5.14212 10.0422 C 5.09644 9.99664 5.06877 9.96904 5.04066 9.94176 L 3.99611 11.0183 C 4.01525 11.0369 4.03464 11.0562 4.08306 11.1044 L 5.14212 10.0422 z M 2.70065 10.1687 C 3.18281 10.3674 3.62245 10.6557 3.99611 11.0183 L 5.04066 9.94176 C 4.53026 9.44653 3.93001 9.05289 3.27206 8.78182 L 2.70065 10.1687 z M 1.69562 7.49203 C 0.921826 8.26348 1.19466 9.57157 2.20821 9.97318 L 2.76078 8.57867 C 2.75633 8.5769 2.75452 8.57558 2.75424 8.57537 C 2.75386 8.5751 2.75375 8.57497 2.75362 8.5748 C 2.75315 8.57424 2.75145 8.57174 2.75051 8.56721 C 2.74957 8.56267 2.75019 8.55991 2.75028 8.55957 C 2.75029 8.55954 2.75026 8.55958 2.75038 8.55938 C 2.75044 8.55928 2.75143 8.55752 2.75467 8.5543 L 1.69562 7.49203 z M 16.5647 14.0471 L 16.9709 14.6744 L 18.23 13.8591 L 17.8238 13.2318 L 16.5647 14.0471 z M 15.4291 21.1843 L 15.3451 21.2681 L 16.4041 22.3304 L 16.4882 22.2466 L 15.4291 21.1843 z M 16.9709 14.6744 C 17.3846 15.3133 17.6713 15.7569 17.8703 16.1242 C 18.0643 16.4821 18.1488 16.7212 18.1811 16.939 L 19.6648 16.7184 C 19.5969 16.2619 19.4275 15.8493 19.189 15.4093 C 18.9557 14.9788 18.6312 14.4786 18.23 13.8591 L 16.9709 14.6744 z M 16.4882 22.2466 C 17.0453 21.6911 17.6742 21.0643 18.1976 20.494 C 18.4595 20.2086 18.7033 19.9284 18.9028 19.6712 C 19.0931 19.4257 19.2787 19.1564 19.386 18.8994 L 18.0018 18.3216 C 17.974 18.3882 17.8901 18.5293 17.7174 18.7521 C 17.5536 18.9632 17.3406 19.2094 17.0925 19.4797 C 16.5959 20.0209 15.9922 20.623 15.4291 21.1843 L 16.4882 22.2466 z M 18.1811 16.939 C 18.2488 17.3944 18.189 17.8732 18.0018 18.3216 L 19.386 18.8994 C 19.6753 18.2065 19.7739 17.4521 19.6648 16.7184 L 18.1811 16.939 z M 13.5173 18.3944 L 12.9944 17.936 L 12.0056 19.0639 L 12.5284 19.5223 L 13.5173 18.3944 z M 15.4457 21.2969 C 15.231 20.7583 15.102 20.4312 14.9324 20.122 L 13.6173 20.8434 C 13.7326 21.0536 13.8247 21.2813 14.0523 21.8523 L 15.4457 21.2969 z M 12.4933 19.4895 C 12.9291 19.924 13.1025 20.0986 13.2505 20.2875 L 14.4311 19.3622 C 14.2136 19.0846 13.9635 18.8371 13.5524 18.4272 L 12.4933 19.4895 z M 14.9324 20.122 C 14.7863 19.8556 14.6186 19.6015 14.4311 19.3622 L 13.2505 20.2875 C 13.3877 20.4626 13.5104 20.6485 13.6173 20.8434 L 14.9324 20.122 z M 15.3451 21.2681 C 15.3514 21.2618 15.3619 21.2553 15.3735 21.2521 C 15.3833 21.2493 15.3907 21.2497 15.3959 21.2507 C 15.401 21.2517 15.4096 21.2546 15.4199 21.2628 C 15.4316 21.2721 15.441 21.2851 15.4457 21.2969 L 14.0523 21.8523 C 14.4363 22.8154 15.6842 23.0481 16.4041 22.3304 L 15.3451 21.2681 z M 13.0303 17.9696 L 12.7491 17.6884 L 11.6885 18.749 L 11.9697 19.0303 L 13.0303 17.9696 z M 5.04299 12.0615 L 5.21923 12.2377 L 6.27989 11.1771 L 6.10365 11.0008 L 5.04299 12.0615 z M 10.8562 14.1695 C 11.1495 13.8771 11.1502 13.4022 10.8578 13.1089 C 10.5653 12.8155 10.0904 12.8148 9.7971 13.1073 L 10.8562 14.1695 z M 8.79613 16.2234 L 10.8562 14.1695 L 9.7971 13.1073 L 7.73707 15.1611 L 8.79613 16.2234 z M 16.6639 8.99959 C 16.1981 9.46396 15.442 9.46396 14.9762 8.99959 L 13.9172 10.0618 C 14.9683 11.1099 16.6717 11.1099 17.7229 10.0618 L 16.6639 8.99959 z M 14.9762 8.99959 C 14.5117 8.53646 14.5117 7.78651 14.9762 7.32338 L 13.9172 6.26113 C 12.8647 7.31041 12.8647 9.01256 13.9172 10.0618 L 14.9762 8.99959 z M 14.9762 7.32338 C 15.442 6.859 16.1981 6.859 16.6639 7.32338 L 17.7229 6.26113 C 16.6717 5.21309 14.9683 5.21309 13.9172 6.26113 L 14.9762 7.32338 z M 16.6639 7.32338 C 17.1284 7.78651 17.1284 8.53646 16.6639 8.99959 L 17.7229 10.0618 C 18.7754 9.01256 18.7754 7.31041 17.7229 6.26113 L 16.6639 7.32338 z" stroke-linecap="round" />
</g>
</g>
</g>
</svg>
